<?xml version="1.0" encoding="UTF-8" standalone="no"?>
<!-- Created with Inkscape (http://www.inkscape.org/) -->

<svg
   xmlns:dc="http://purl.org/dc/elements/1.1/"
   xmlns:cc="http://creativecommons.org/ns#"
   xmlns:rdf="http://www.w3.org/1999/02/22-rdf-syntax-ns#"
   xmlns:svg="http://www.w3.org/2000/svg"
   xmlns="http://www.w3.org/2000/svg"
   xmlns:xlink="http://www.w3.org/1999/xlink"
   xmlns:sodipodi="http://sodipodi.sourceforge.net/DTD/sodipodi-0.dtd"
   xmlns:inkscape="http://www.inkscape.org/namespaces/inkscape"
   height="48px"
   id="svg7841"
   inkscape:output_extension="org.inkscape.output.svg.inkscape"
   inkscape:version="0.48+devel+osxmenu r12786"
   sodipodi:docname="java-coffee.svg"
   sodipodi:version="0.32"
   width="48px"
   version="1.1">
  <metadata
     id="metadata11">
    <rdf:RDF>
      <cc:Work
         rdf:about="">
        <dc:title />
        <dc:description />
        <dc:subject>
          <rdf:Bag>
            <rdf:li>unsorted</rdf:li>
          </rdf:Bag>
        </dc:subject>
        <dc:publisher>
          <cc:Agent
             rdf:about="http://www.openclipart.org/">
            <dc:title>Open Clip Art Library, Source: GNOME-Colors, Source: GNOME-Colors, Source: GNOME-Colors, Source: GNOME-Colors, Source: GNOME-Colors</dc:title>
          </cc:Agent>
        </dc:publisher>
        <dc:creator>
          <cc:Agent>
            <dc:title />
          </cc:Agent>
        </dc:creator>
        <dc:rights>
          <cc:Agent>
            <dc:title />
          </cc:Agent>
        </dc:rights>
        <dc:date />
        <dc:format>image/svg+xml</dc:format>
        <dc:type
           rdf:resource="http://purl.org/dc/dcmitype/StillImage" />
        <cc:license
           rdf:resource="http://creativecommons.org/licenses/GPL/2.0/" />
        <dc:language>en</dc:language>
      </cc:Work>
    </rdf:RDF>
  </metadata>
  <defs
     id="defs7843">
    <linearGradient
       id="linearGradient6902"
       inkscape:collect="always">
      <stop
         id="stop6904"
         offset="0"
         style="stop-color:#ffffff;stop-opacity:1;" />
      <stop
         id="stop6906"
         offset="1"
         style="stop-color:#ffffff;stop-opacity:0;" />
    </linearGradient>
    <radialGradient
       cx="18.348351"
       cy="45.815006"
       fx="18.348351"
       fy="45.815006"
       gradientTransform="matrix(1.1947638,0.4236272,-0.3550842,0.9983516,12.684783,-14.230295)"
       gradientUnits="userSpaceOnUse"
       id="radialGradient6908"
       inkscape:collect="always"
       r="9.0000006"
       xlink:href="#linearGradient6902" />
    <linearGradient
       id="linearGradient7010">
      <stop
         id="stop7012"
         offset="0"
         style="stop-color:#ffffff;stop-opacity:0.2" />
      <stop
         id="stop7016"
         offset="1"
         style="stop-color:#ffffff;stop-opacity:1;" />
    </linearGradient>
    <radialGradient
       cx="26.671368"
       cy="40.067455"
       fx="26.671368"
       fy="40.067455"
       gradientTransform="matrix(1.0863679,-0.00671757,0.00479934,0.7761513,-2.5375583,5.7981955)"
       gradientUnits="userSpaceOnUse"
       id="radialGradient7018"
       inkscape:collect="always"
       r="17"
       xlink:href="#linearGradient7010" />
    <linearGradient
       id="linearGradient6356"
       inkscape:collect="always">
      <stop
         id="stop6358"
         offset="0"
         style="stop-color:#f1d09d;stop-opacity:1" />
      <stop
         id="stop6360"
         offset="1"
         style="stop-color:#ffffff;stop-opacity:0.28409091" />
    </linearGradient>
    <radialGradient
       cx="30.268013"
       cy="12.26056"
       fx="30.268013"
       fy="12.26056"
       gradientTransform="matrix(0.7782092,0.2144213,-0.5487816,0.5203076,10.345927,5.3481949)"
       gradientUnits="userSpaceOnUse"
       id="radialGradient5570"
       inkscape:collect="always"
       r="12"
       xlink:href="#linearGradient6356" />
    <linearGradient
       id="linearGradient6415">
      <stop
         id="stop6417"
         offset="0"
         style="stop-color:#8e5801;stop-opacity:1;" />
      <stop
         id="stop6501"
         offset="0.50000024"
         style="stop-color:#543400;stop-opacity:1" />
      <stop
         id="stop6419"
         offset="1"
         style="stop-color:#e9b96e;stop-opacity:1" />
    </linearGradient>
    <radialGradient
       cx="2.6166739"
       cy="25.459009"
       fx="2.6166739"
       fy="25.459009"
       gradientTransform="matrix(0.01835287,0.5342203,-1.2705949,0.0747899,48.480461,15.69803)"
       gradientUnits="userSpaceOnUse"
       id="radialGradient5568"
       inkscape:collect="always"
       r="15"
       xlink:href="#linearGradient6415" />
    <linearGradient
       id="linearGradient6485"
       inkscape:collect="always">
      <stop
         id="stop6487"
         offset="0"
         style="stop-color:#babdb6;stop-opacity:1" />
      <stop
         id="stop6489"
         offset="1"
         style="stop-color:#ffffff;stop-opacity:1" />
    </linearGradient>
    <linearGradient
       gradientUnits="userSpaceOnUse"
       id="linearGradient6491"
       inkscape:collect="always"
       x1="4.0794621"
       x2="38.265352"
       xlink:href="#linearGradient6485"
       y1="19.525354"
       y2="19.525354" />
    <linearGradient
       id="linearGradient6430"
       inkscape:collect="always">
      <stop
         id="stop6432"
         offset="0"
         style="stop-color:#ffffff;stop-opacity:1;" />
      <stop
         id="stop6434"
         offset="1"
         style="stop-color:#ffffff;stop-opacity:0;" />
    </linearGradient>
    <linearGradient
       gradientTransform="matrix(0.9890811,0,0,1,1.0327568,-2.0000207)"
       gradientUnits="userSpaceOnUse"
       id="linearGradient6436"
       inkscape:collect="always"
       x1="2.0234036"
       x2="35.63699"
       xlink:href="#linearGradient6430"
       y1="22.198654"
       y2="35.920536" />
    <linearGradient
       id="linearGradient6697"
       inkscape:collect="always">
      <stop
         id="stop6699"
         offset="0"
         style="stop-color:#000000;stop-opacity:1;" />
      <stop
         id="stop6701"
         offset="1"
         style="stop-color:#ffffff;stop-opacity:0" />
    </linearGradient>
    <linearGradient
       gradientTransform="translate(1.0000002,-2.0000207)"
       gradientUnits="userSpaceOnUse"
       id="linearGradient6703"
       inkscape:collect="always"
       x1="29.403845"
       x2="23.173077"
       xlink:href="#linearGradient6697"
       y1="42"
       y2="40.076923" />
    <linearGradient
       id="linearGradient7022"
       inkscape:collect="always">
      <stop
         id="stop7024"
         offset="0"
         style="stop-color:#000000;stop-opacity:1;" />
      <stop
         id="stop7026"
         offset="1"
         style="stop-color:#000000;stop-opacity:0;" />
    </linearGradient>
    <linearGradient
       gradientTransform="translate(3.1463021e-8,-1.0000177)"
       gradientUnits="userSpaceOnUse"
       id="linearGradient7033"
       inkscape:collect="always"
       spreadMethod="pad"
       x1="-7.9941564"
       x2="15.359629"
       xlink:href="#linearGradient7022"
       y1="36.043625"
       y2="27.639933" />
    <linearGradient
       id="linearGradient6674">
      <stop
         id="stop6676"
         offset="0"
         style="stop-color:#ffffff;stop-opacity:1;" />
      <stop
         id="stop6678"
         offset="1"
         style="stop-color:#d3d7cf;stop-opacity:1" />
    </linearGradient>
    <radialGradient
       cx="16.879473"
       cy="24.207943"
       fx="16.879473"
       fy="24.207943"
       gradientTransform="matrix(1.3072989,-1.1169287e-7,1.4513664e-7,1.6964998,-5.1459795,-18.939903)"
       gradientUnits="userSpaceOnUse"
       id="radialGradient6672"
       inkscape:collect="always"
       r="18.031313"
       xlink:href="#linearGradient6674" />
    <linearGradient
       id="linearGradient6972">
      <stop
         id="stop6974"
         offset="0"
         style="stop-color:#ffffff;stop-opacity:1;" />
      <stop
         id="stop6988"
         offset="0.26791042"
         style="stop-color:#ffffff;stop-opacity:1;" />
      <stop
         id="stop6976"
         offset="1"
         style="stop-color:#babdb6;stop-opacity:1" />
    </linearGradient>
    <radialGradient
       cx="38.271816"
       cy="22.034494"
       fx="38.271816"
       fy="22.034494"
       gradientTransform="matrix(-0.8124067,-0.09048769,0.8060108,-4.3425845,54.463748,116.30491)"
       gradientUnits="userSpaceOnUse"
       id="radialGradient6978"
       inkscape:collect="always"
       r="7.4999994"
       xlink:href="#linearGradient6972" />
    <linearGradient
       id="linearGradient6515">
      <stop
         id="stop6517"
         offset="0"
         style="stop-color:#000000;stop-opacity:1;" />
      <stop
         id="stop6519"
         offset="1"
         style="stop-color:#ffffff;stop-opacity:0;" />
    </linearGradient>
    <linearGradient
       gradientTransform="matrix(1,0,0,0.928567,1.0000002,1.2144026)"
       gradientUnits="userSpaceOnUse"
       id="linearGradient6525"
       inkscape:collect="always"
       x1="-2.2426405"
       x2="26.960201"
       xlink:href="#linearGradient6515"
       y1="29.677462"
       y2="51.706558" />
    <linearGradient
       id="linearGradient6641"
       inkscape:collect="always">
      <stop
         id="stop6643"
         offset="0"
         style="stop-color:#000000;stop-opacity:1;" />
      <stop
         id="stop6645"
         offset="1"
         style="stop-color:#000000;stop-opacity:0;" />
    </linearGradient>
    <radialGradient
       cx="19.49839"
       cy="39.109619"
       fx="19.49839"
       fy="39.109619"
       gradientTransform="matrix(1.0416667,0,0,0.3083188,-0.3605775,28.153309)"
       gradientUnits="userSpaceOnUse"
       id="radialGradient6647"
       inkscape:collect="always"
       r="11.01923"
       xlink:href="#linearGradient6641" />
    <linearGradient
       id="linearGradient6468"
       inkscape:collect="always">
      <stop
         id="stop6470"
         offset="0"
         style="stop-color:#babdb6;stop-opacity:1" />
      <stop
         id="stop6472"
         offset="1"
         style="stop-color:#ffffff;stop-opacity:1" />
    </linearGradient>
    <radialGradient
       cx="20.030159"
       cy="39.59631"
       fx="20.030159"
       fy="39.59631"
       gradientTransform="matrix(1,0,0,0.3893333,0,24.180146)"
       gradientUnits="userSpaceOnUse"
       id="radialGradient6474"
       inkscape:collect="always"
       r="15.297982"
       xlink:href="#linearGradient6468" />
    <linearGradient
       id="linearGradient6914"
       inkscape:collect="always">
      <stop
         id="stop6916"
         offset="0"
         style="stop-color:#000000;stop-opacity:1;" />
      <stop
         id="stop6918"
         offset="1"
         style="stop-color:#000000;stop-opacity:0;" />
    </linearGradient>
    <radialGradient
       cx="22.967371"
       cy="41.309681"
       fx="22.967371"
       fy="41.309681"
       gradientTransform="matrix(1,0,0,0.3149284,0,28.300089)"
       gradientUnits="userSpaceOnUse"
       id="radialGradient6920"
       inkscape:collect="always"
       r="19.94857"
       xlink:href="#linearGradient6914" />
  </defs>
  <sodipodi:namedview
     bordercolor="#666666"
     borderopacity="1.0"
     id="base"
     inkscape:current-layer="layer1"
     inkscape:cx="23.48475"
     inkscape:cy="6.5373996"
     inkscape:document-units="px"
     inkscape:grid-bbox="true"
     inkscape:pageopacity="0.0"
     inkscape:pageshadow="2"
     inkscape:window-height="1090"
     inkscape:window-width="1920"
     inkscape:window-x="0"
     inkscape:window-y="22"
     inkscape:zoom="7"
     pagecolor="#ffffff"
     showgrid="true"
     inkscape:window-maximized="0" />
  <g
     id="layer1"
     inkscape:groupmode="layer"
     inkscape:label="Layer 1">
    <g
       id="g7919"
       transform="translate(3.1463021e-8,-5.7166321e-6)" />
    <g
       id="g3613"
       transform="translate(1.7792562,-0.78569428)">
      <ellipse
         transform="matrix(1.1028359,0,0,1.3529923,-1.3292418,-17.391699)"
         style="display:inline;overflow:visible;visibility:visible;opacity:0.6;fill:url(#radialGradient6920);fill-opacity:1;fill-rule:evenodd;stroke:none;stroke-width:1;stroke-linecap:round;stroke-linejoin:round;stroke-miterlimit:4;stroke-dasharray:none;stroke-dashoffset:0;stroke-opacity:1;marker:none;marker-start:none;marker-mid:none;marker-end:none;enable-background:accumulate"
         id="path6910"
         cx="22.967371"
         cy="41.309681"
         rx="19.94857"
         ry="6.2823715"
         d="M 42.915941,41.309681 A 19.94857,6.2823715 0 0 1 22.967371,47.592052 19.94857,6.2823715 0 0 1 3.0188007,41.309681 19.94857,6.2823715 0 0 1 22.967371,35.027309 19.94857,6.2823715 0 0 1 42.915941,41.309681 Z" />
      <ellipse
         transform="matrix(1.2419939,0,0,1.2592313,-3.8773344,-13.360932)"
         style="display:inline;overflow:visible;visibility:visible;opacity:1;fill:url(#radialGradient6474);fill-opacity:1;fill-rule:evenodd;stroke:none;stroke-width:0.74142659;stroke-linecap:round;stroke-linejoin:round;stroke-miterlimit:4;stroke-dasharray:none;stroke-dashoffset:0;stroke-opacity:1;marker:none;marker-start:none;marker-mid:none;marker-end:none;enable-background:accumulate"
         id="path6380"
         cx="20.030159"
         cy="39.59631"
         rx="15.297982"
         ry="5.9560146"
         d="M 35.328141,39.59631 A 15.297982,5.9560146 0 0 1 20.030159,45.552324 15.297982,5.9560146 0 0 1 4.7321768,39.59631 15.297982,5.9560146 0 0 1 20.030159,33.640295 15.297982,5.9560146 0 0 1 35.328141,39.59631 Z" />
      <ellipse
         transform="matrix(1.0436301,0,0,1.3081764,1.9685851,-14.603791)"
         style="display:inline;overflow:visible;visibility:visible;opacity:0.5;fill:url(#radialGradient6647);fill-opacity:1;fill-rule:evenodd;stroke:none;stroke-width:1;stroke-linecap:round;stroke-linejoin:round;stroke-miterlimit:4;stroke-dasharray:none;stroke-dashoffset:0;stroke-opacity:0.33333333;marker:none;marker-start:none;marker-mid:none;marker-end:none;enable-background:accumulate"
         id="path6639"
         cx="19.673077"
         cy="40.21154"
         rx="11.01923"
         ry="3.0576923"
         d="M 30.692307,40.21154 A 11.01923,3.0576923 0 0 1 19.673077,43.269233 11.01923,3.0576923 0 0 1 8.6538467,40.21154 11.01923,3.0576923 0 0 1 19.673077,37.153848 11.01923,3.0576923 0 0 1 30.692307,40.21154 Z" />
      <path
         style="display:inline;overflow:visible;visibility:visible;opacity:0.22999998;fill:url(#linearGradient6525);fill-opacity:1;fill-rule:evenodd;stroke:none;stroke-width:0.74142659;stroke-linecap:round;stroke-linejoin:round;stroke-miterlimit:4;stroke-dasharray:none;stroke-dashoffset:0;stroke-opacity:1;marker:none;marker-start:none;marker-mid:none;marker-end:none;enable-background:accumulate"
         sodipodi:nodetypes="cscc"
         id="path6505"
         d="m 19.311741,29.99998 c -9.155609,0.350567 -16.3117408,3.272588 -16.3117408,6.81314 0,2.743188 4.293952,5.09558 10.4861188,6.18599 15.685894,-1.935488 -23.534998,-3.680051 5.825622,-12.99913 z"
         inkscape:connector-curvature="0" />
      <ellipse
         transform="matrix(1.1766258,0,0,1.2592312,-3.0680011,-13.860929)"
         style="display:inline;overflow:visible;visibility:visible;opacity:1;fill:none;fill-opacity:1;fill-rule:evenodd;stroke:#ffffff;stroke-width:0.82153881;stroke-linecap:round;stroke-linejoin:round;stroke-miterlimit:4;stroke-dasharray:none;stroke-dashoffset:0;stroke-opacity:1;marker:none;marker-start:none;marker-mid:none;marker-end:none;enable-background:accumulate"
         id="path6382"
         cx="20.030159"
         cy="39.59631"
         rx="15.297982"
         ry="5.9560146"
         d="M 35.328141,39.59631 A 15.297982,5.9560146 0 0 1 20.030159,45.552324 15.297982,5.9560146 0 0 1 4.7321768,39.59631 15.297982,5.9560146 0 0 1 20.030159,33.640295 15.297982,5.9560146 0 0 1 35.328141,39.59631 Z" />
      <path
         style="fill:none;fill-rule:evenodd;stroke:#888a85;stroke-width:4.99999952;stroke-linecap:round;stroke-linejoin:miter;stroke-miterlimit:4;stroke-dasharray:none;stroke-opacity:1"
         sodipodi:nodetypes="csc"
         id="use6711"
         d="m 34.892388,19.885191 c 0,-4.692758 7.607608,-3.998944 7.607608,-0.99745 0,10.029256 -9.738406,8.84768 -13.999997,14.612241"
         inkscape:connector-curvature="0" />
      <ellipse
         transform="matrix(1.2746779,0,0,1.3431802,-4.5320012,-16.684997)"
         style="display:inline;overflow:visible;visibility:visible;opacity:1;fill:none;fill-opacity:1;fill-rule:evenodd;stroke:#888a85;stroke-width:0.76424503;stroke-linecap:round;stroke-linejoin:round;stroke-miterlimit:4;stroke-dasharray:none;stroke-dashoffset:0;stroke-opacity:1;marker:none;marker-start:none;marker-mid:none;marker-end:none;enable-background:accumulate"
         id="path6384"
         cx="20.030159"
         cy="39.59631"
         rx="15.297982"
         ry="5.9560146"
         d="M 35.328141,39.59631 A 15.297982,5.9560146 0 0 1 20.030159,45.552324 15.297982,5.9560146 0 0 1 4.7321768,39.59631 15.297982,5.9560146 0 0 1 20.030159,33.640295 15.297982,5.9560146 0 0 1 35.328141,39.59631 Z" />
      <path
         style="fill:none;fill-rule:evenodd;stroke:url(#radialGradient6978);stroke-width:2.99999976;stroke-linecap:round;stroke-linejoin:miter;stroke-miterlimit:4;stroke-dasharray:none;stroke-opacity:1"
         sodipodi:nodetypes="csc"
         id="use6713"
         d="m 34.892389,19.885189 c 0,-4.692757 7.607609,-3.998943 7.607609,-0.997449 0,10.029255 -9.738407,8.847678 -13.999998,14.612238"
         inkscape:connector-curvature="0" />
      <path
         style="fill:none;fill-rule:evenodd;stroke:#eeeeec;stroke-width:1;stroke-linecap:round;stroke-linejoin:miter;stroke-miterlimit:4;stroke-dasharray:none;stroke-opacity:1"
         sodipodi:nodetypes="csc"
         id="use6715"
         d="m 34.892389,19.88519 c 0,-4.692758 7.607609,-3.998944 7.607609,-0.99745 0,10.029256 -9.738406,8.847679 -13.999998,14.612239"
         inkscape:connector-curvature="0" />
      <path
         style="display:inline;overflow:visible;visibility:visible;opacity:1;fill:url(#radialGradient6672);fill-opacity:1;fill-rule:evenodd;stroke:none;stroke-width:1.06262505;stroke-linecap:round;stroke-linejoin:round;stroke-miterlimit:4;stroke-dasharray:none;stroke-dashoffset:0;stroke-opacity:1;marker:none;marker-start:none;marker-mid:none;marker-end:none;enable-background:accumulate"
         id="path6649"
         d="m 21,8.4999793 c -9.66,0 -17.4999999,3.2527587 -17.4999998,7.2500007 0,0 0.094439,13.526095 8.0937498,19.71875 -0.04132,0.169334 -0.0625,0.356718 -0.0625,0.53125 0,2.466715 4.242035,4.468748 9.46875,4.46875 5.226716,0 9.468749,-2.002035 9.46875,-4.46875 0,-0.164351 -0.0258,-0.34023 -0.0625,-0.5 8.04932,-6.182974 8.09375,-19.75 8.09375,-19.75 10e-7,-3.997242 -7.839999,-7.2500007 -17.5,-7.2500007 z"
         inkscape:connector-curvature="0" />
      <path
         style="fill:url(#linearGradient7033);fill-opacity:1;fill-rule:evenodd;stroke:none;stroke-width:1px;stroke-linecap:butt;stroke-linejoin:miter;stroke-opacity:1"
         sodipodi:nodetypes="cccccc"
         id="path7020"
         d="m 14.59375,15.281233 c -4.191734,1.001555 -4.511634,12.48106 -8.96875,9.21875 1.9399911,6.09923 6.155522,13.436376 15.21875,13.5 C 22.681065,27.33882 8.9873584,30.976912 14.5625,17.968733 l 0.09375,-2.6875 c -0.01991,0.0046 -0.04262,-0.0047 -0.0625,0 z"
         inkscape:connector-curvature="0" />
      <path
         style="display:inline;overflow:visible;visibility:visible;opacity:0.5;fill:url(#linearGradient6703);fill-opacity:1;fill-rule:evenodd;stroke:none;stroke-width:0.97228843;stroke-linecap:round;stroke-linejoin:round;stroke-miterlimit:4;stroke-dasharray:none;stroke-dashoffset:0;stroke-opacity:1;marker:none;marker-start:none;marker-mid:none;marker-end:none;enable-background:accumulate"
         id="path6663"
         d="M 12.1875,34.99998 C 12.067547,35.270435 12,35.557383 12,35.844136 c 0,2.294026 4.032,4.155843 9,4.155844 4.968,0 8.999999,-1.861819 9,-4.155844 0,-0.286753 -0.06755,-0.573702 -0.1875,-0.844156 -2.257679,1.778179 -5.139764,2.918598 -8.8125,2.922078 -3.680722,0.0035 -6.552622,-1.139146 -8.8125,-2.922078 z"
         inkscape:connector-curvature="0" />
      <path
         style="fill:url(#linearGradient6436);fill-opacity:1;fill-rule:evenodd;stroke:none;stroke-width:1px;stroke-linecap:butt;stroke-linejoin:miter;stroke-opacity:1"
         sodipodi:nodetypes="ccccc"
         id="path6425"
         d="M 14.878713,9.9999793 C 8.53138,10.981981 3.9423078,13.958863 4.0000002,16.429609 c 1e-7,0 1.3027011,21.461376 16.8289488,21.57037 C 22.666264,27.338816 8.9730044,30.978529 14.548146,17.97035 l 0.330567,-7.9703707 z"
         inkscape:connector-curvature="0" />
      <ellipse
         transform="matrix(0.877555,0,0,0.7581351,2.4200479,1.1971236)"
         style="display:inline;overflow:visible;visibility:visible;opacity:1;fill:url(#linearGradient6491);fill-opacity:1;fill-rule:evenodd;stroke:none;stroke-width:0.95310962;stroke-linecap:round;stroke-linejoin:round;stroke-miterlimit:4;stroke-dasharray:none;stroke-dashoffset:0;stroke-opacity:1;marker:none;marker-start:none;marker-mid:none;marker-end:none;enable-background:accumulate"
         id="path6339"
         cx="21.172407"
         cy="19.525354"
         rx="17.092945"
         ry="7.9141564"
         d="M 38.265352,19.525354 A 17.092945,7.9141564 0 0 1 21.172407,27.439511 17.092945,7.9141564 0 0 1 4.0794621,19.525354 17.092945,7.9141564 0 0 1 21.172407,11.611198 17.092945,7.9141564 0 0 1 38.265352,19.525354 Z" />
      <path
         style="display:inline;overflow:visible;visibility:visible;opacity:1;fill:url(#radialGradient5568);fill-opacity:1;fill-rule:evenodd;stroke:#8f5902;stroke-width:0.99999982;stroke-linecap:round;stroke-linejoin:round;stroke-miterlimit:4;stroke-dasharray:none;stroke-dashoffset:0;stroke-opacity:1;marker:none;marker-start:none;marker-mid:none;marker-end:none;enable-background:accumulate"
         id="path6342"
         d="m 20.999999,16.499995 c -5.011801,0 -9.348095,1.015109 -11.4999991,2.499993 2.1519041,1.484883 6.4881991,2.49999 11.4999991,2.499991 5.011802,0 9.348094,-1.015108 11.5,-2.499991 -2.151906,-1.484884 -6.488198,-2.499994 -11.5,-2.499993 z"
         inkscape:connector-curvature="0" />
      <ellipse
         transform="matrix(0.9068069,0,0,0.8213131,1.800716,-0.03644922)"
         style="display:inline;overflow:visible;visibility:visible;opacity:1;fill:none;fill-opacity:1;fill-rule:evenodd;stroke:#ffffff;stroke-width:1.158746;stroke-linecap:round;stroke-linejoin:round;stroke-miterlimit:4;stroke-dasharray:none;stroke-dashoffset:0;stroke-opacity:1;marker:none;marker-start:none;marker-mid:none;marker-end:none;enable-background:accumulate"
         id="path6347"
         cx="21.172407"
         cy="19.525354"
         rx="17.092945"
         ry="7.9141564"
         d="M 38.265352,19.525354 A 17.092945,7.9141564 0 0 1 21.172407,27.439511 17.092945,7.9141564 0 0 1 4.0794621,19.525354 17.092945,7.9141564 0 0 1 21.172407,11.611198 17.092945,7.9141564 0 0 1 38.265352,19.525354 Z" />
      <path
         style="display:inline;overflow:visible;visibility:visible;opacity:1;fill:none;fill-opacity:1;fill-rule:evenodd;stroke:url(#radialGradient5570);stroke-width:0.99999988;stroke-linecap:round;stroke-linejoin:round;stroke-miterlimit:4;stroke-dasharray:none;stroke-dashoffset:0;stroke-opacity:1;marker:none;marker-start:none;marker-mid:none;marker-end:none;enable-background:accumulate"
         sodipodi:nodetypes="ccc"
         id="path6411"
         d="M 28.500001,18.499994 C 27.096584,17.949918 24.529297,17.499993 21,17.499993 c -3.529295,0 -6.096583,0.449925 -7.499999,1.000001"
         inkscape:connector-curvature="0" />
      <path
         style="display:inline;overflow:visible;visibility:visible;fill:none;fill-opacity:1;fill-rule:evenodd;stroke:url(#radialGradient7018);stroke-width:1;stroke-linecap:round;stroke-linejoin:round;stroke-miterlimit:4;stroke-dasharray:none;stroke-dashoffset:0;stroke-opacity:1;marker:none;marker-start:none;marker-mid:none;marker-end:none;enable-background:accumulate"
         sodipodi:nodetypes="cczcc"
         id="path6408"
         d="m 21,9.4999793 c -5.434444,0.342417 -13.9317278,0.282612 -16.5,6.2152457 0,0 0.3352984,21.799409 16.5,21.784748 C 37.164421,37.485312 37.5,15.715225 37.5,15.715225 35.450001,9.8139603 26.16578,9.7555153 21,9.4999793 Z"
         inkscape:connector-curvature="0" />
      <path
         style="display:inline;overflow:visible;visibility:visible;opacity:1;fill:none;fill-opacity:1;fill-rule:evenodd;stroke:url(#radialGradient6908);stroke-width:1;stroke-linecap:round;stroke-linejoin:round;stroke-miterlimit:4;stroke-dasharray:none;stroke-dashoffset:0;stroke-opacity:1;marker:none;marker-start:none;marker-mid:none;marker-end:none;enable-background:accumulate"
         sodipodi:nodetypes="css"
         id="path6900"
         d="m 12.499999,35.499982 c 0,2.207966 3.808032,3.999996 8.500001,3.999998 4.691967,0 8.499997,-1.792032 8.499998,-3.999998"
         inkscape:connector-curvature="0" />
      <path
         style="display:inline;overflow:visible;visibility:visible;opacity:1;fill:none;fill-opacity:1;fill-rule:evenodd;stroke:#888a85;stroke-width:1.06262517;stroke-linecap:round;stroke-linejoin:round;stroke-miterlimit:4;stroke-dasharray:none;stroke-dashoffset:0;stroke-opacity:1;marker:none;marker-start:none;marker-mid:none;marker-end:none;enable-background:accumulate"
         id="path6695"
         d="m 21.000002,8.5312913 c -9.642717,0 -17.4686895,3.2495727 -17.4686894,7.2428997 0,0 0.09427,13.512846 8.0792684,19.699435 -0.04124,0.169168 -0.06239,0.356369 -0.06239,0.53073 0,2.464299 4.234446,4.464371 9.45181,4.464373 5.217364,0 9.451807,-2.000074 9.451808,-4.464373 0,-0.16419 -0.02575,-0.339897 -0.06239,-0.49951 8.034918,-6.176918 8.079268,-19.730655 8.079268,-19.730655 10e-7,-3.993327 -7.825971,-7.2428997 -17.468688,-7.2428997 z"
         inkscape:connector-curvature="0" />
    </g>
  </g>
</svg>
